<?xml version="1.0" encoding="UTF-8"?>
<svg xmlns="http://www.w3.org/2000/svg" viewBox="0 0 1095 1095" width="1095" height="1095">
<path d="M0.25 0.25C365.08 0.25 729.92 0.25 1094.75 0.25C1094.75 365.08 1094.75 729.92 1094.75 1094.75C729.92 1094.75 365.08 1094.75 0.25 1094.75C0.25 729.92 0.25 365.08 0.25 0.25ZM364.89 309.75C364.28 310.48 363.67 311.2 363.05 311.93C362.34 312.98 361.64 314.03 360.93 315.09C357.28 317.79 354.65 322.65 351.76 326.27C344.95 334.81 338.42 343.6 331.75 352.27C310.74 379.58 289.83 407 268.69 434.23C217.82 499.72 167.49 565.65 116.93 631.39C102.44 650.23 87.76 668.95 73.41 687.9C67.07 696.27 56.22 706.81 53.45 716.9C51.68 723.39 52.96 730.84 52.96 737.5C52.96 753.86 54.32 770.14 54.3 786.5C54.29 802.18 55.04 817.86 55.68 833.5C56.81 861.18 55.93 888.92 57.63 916.55C58.22 926.16 57.73 935.88 57.98 945.5C58.1 950.38 57.55 955.43 62.5 957.68C71.65 955.73 85.76 946.6 94.73 942.23C117.93 930.94 140.88 919.11 163.9 907.46C236.57 870.65 309.79 834.96 382.24 797.69C413.56 781.59 445.09 765.72 476.71 750.22C486.52 745.41 496.2 740.35 506.01 735.55C510.45 733.38 516.32 731.48 519.78 728.11C529.49 725.52 542.54 717.19 551.98 712.52C574.47 701.39 596.69 689.71 619.26 678.77C627.74 674.67 636.09 670.29 644.52 666.09C647.81 664.45 651.71 661.78 655.5 661.91C661.29 662.12 665.07 668.11 668.49 672C677.24 681.93 686.22 691.64 694.86 701.66C718.28 728.84 743.01 754.86 766.55 781.94C774.29 790.84 782.17 799.64 790.06 808.43C793.75 812.54 797.42 818.24 802.08 821.08C803.99 825.25 808.22 828.71 811.29 832.2C818.46 840.36 825.64 848.53 832.95 856.57C855.05 880.84 876.48 905.67 898.44 930.07C905.7 938.14 912.74 946.42 920.11 954.38C922.89 957.39 925.65 962.57 929.96 962.5C932.98 957.96 932 951.03 932.43 945.7C933.46 932.99 934.33 920.24 934.93 907.5C936.91 865.45 941 823.53 943.22 781.5C943.77 771.17 944.53 760.83 945.21 750.5C945.69 743.27 946.16 736.73 942.21 730.28C934.56 717.79 924.39 705.66 915.64 693.86C897.43 669.33 879.71 644.44 861.7 619.76C854.95 610.52 848.13 601.34 841.44 592.06C839.26 589.04 833.55 582.94 833.01 579.46C832.06 573.27 839.2 571.31 843.61 569.14C856.79 562.65 869.92 556.07 883.06 549.51C896.84 542.62 910.6 535.71 924.4 528.85C929.98 526.07 939.11 523.57 942.49 518.01C945.63 512.86 943.77 508.08 943.19 502.5C942.41 495.14 941.15 487.83 940.24 480.49C939.56 474.97 939.48 468.92 937.9 463.56C935.97 456.99 929.52 455.83 923.74 454.61C916.36 453.05 909.04 451.22 901.65 449.67C894.27 448.13 886.94 446.35 879.57 444.75C875.01 443.75 870.21 441.99 865.5 442.16C858.44 442.42 852.2 446.35 846.18 449.61C836.38 454.91 826.31 459.72 816.45 464.91C805.08 470.89 793.43 476.43 782.22 482.67C777.89 485.08 772.21 489.21 767.05 487.43C762.18 485.74 756.36 475.51 753.27 471.24C742.48 456.38 731.77 441.44 720.85 426.68C692.9 388.88 665.33 350.8 637.69 312.77C627.88 299.26 618.05 285.76 608.17 272.3C604 266.6 600.2 259.93 595.25 254.94C589.66 244.74 581.31 235.47 574.48 226.04C558.65 204.21 542.67 182.51 526.78 160.73C521.58 153.6 516.43 146.42 511.21 139.3C509.34 136.75 507.13 132.53 503.45 132.5C499.15 132.47 495.78 139.08 493.51 142.01C485.38 152.56 477.2 163.07 469.14 173.67C444.82 205.64 420.01 237.24 395.69 269.21C388.65 278.47 381.42 287.6 374.37 296.86C371.27 300.94 366.97 305.13 364.89 309.75ZM869.26 426.1C895.84 434.64 922.42 443.18 949 451.72C958.15 459 956.86 473.11 958.61 483.75C963.76 514.95 967.96 546.29 972.73 577.54C974.15 586.86 975.24 596.21 976.72 605.51C977.42 609.93 977.29 614.51 981.5 616.78C988.28 615.56 999.58 605.42 1005.7 601.19C1013.56 595.75 1021.3 590.12 1029.1 584.59C1034.16 581 1039.84 577.9 1042.31 571.86C1043.57 568.76 1042.97 564.79 1042.97 561.5C1042.97 553.83 1042.81 546.17 1042.81 538.5C1042.82 510.71 1041.23 483.28 1041.21 455.5C1041.2 438.49 1040.38 421.48 1040.38 404.5C1040.38 398.41 1042.29 388.27 1038.39 383.13C1034.18 377.57 1021.75 378.23 1015.3 377.43C1002.1 375.79 988.91 374.16 975.71 372.58C967.91 371.64 959.77 369.69 951.93 369.89C924.93 366.59 897.92 363.28 870.92 359.97C858.53 356.11 851.71 364.5 843.61 372.11C837.09 378.23 830.5 384.34 824.13 390.62C819.82 394.86 812.77 399.61 811.1 405.5C813.68 410.53 820.76 411.06 825.77 412.67C835.95 415.92 846.16 419.06 856.33 422.3C860.62 423.67 864.83 425.31 869.26 426.1ZM475 602.16C465.2 604.41 454.52 609.81 445.05 613.5C424.1 621.66 403.04 629.84 381.87 637.43C374.61 640.04 367.43 642.93 360.22 645.71C356.03 647.32 351.32 650.1 346.95 649.5C379.58 613.66 412.2 577.81 444.83 541.97C449.09 538.96 452.4 534.3 455.94 530.44C465.02 520.53 474.21 510.7 483.44 500.93C486.7 497.47 493.55 487.7 497.78 486.36C504.24 484.32 512.85 497.33 516.75 501.75C529.88 516.62 543.12 531.4 556.38 546.15C560.22 550.42 568.93 558 569.52 563.5C566.73 569.06 551.52 572.67 545.53 575.01C530.6 580.84 515.59 586.48 500.61 592.23C492.2 595.46 482.95 597.95 475 602.16Z" fill="#1d1d1b" fill-rule="evenodd" stroke="#1d1d1b" stroke-width="0.25" stroke-linejoin="round"/>
<path d="M364.89 309.75C364.93 310.34 364.96 310.92 365 311.5C365.63 311.83 366.25 312.17 366.88 312.5C365.6 312.31 364.33 312.12 363.05 311.93C363.67 311.2 364.28 310.48 364.89 309.75ZM360.93 315.09C362.12 315.75 363.31 316.41 364.5 317.07C363.47 318.41 363.31 318.75 363.93 320.5C366.36 320.84 366.82 319.77 368.88 319.5C369.12 320.73 370.04 323.03 369.64 324.26C369.41 324.99 368.4 324.95 368.21 325.67C367.88 326.89 369.4 328 368.7 329.26C368.01 330.49 367.29 329.01 366.51 329.36C365.39 329.85 366.91 329.62 365.93 330.5C366.3 330.85 366.27 331.55 366.7 331.83C367.69 332.46 368.92 331.68 369.69 332.78C370.77 334.31 368.21 335.79 371.5 339.07C371.81 336.64 370.73 335.82 372.5 334.07C375.8 336.31 373.55 337.13 374.1 340.34C374.45 342.37 376.8 343.4 377.93 344.5C374.64 345.42 374.18 346.11 373.93 349.5C376.83 346.96 375.56 346.98 379.5 350.07C378.58 350.81 374.7 350.63 374.3 352.57C373.71 355.46 377.01 353.62 377.93 353.5C377.43 354.49 376.01 356.23 376.17 357.36C376.37 358.72 378.3 359.39 378.74 360.7C379.13 361.84 378.89 363.15 379.14 364.33C379.67 366.91 381.46 368.43 382.93 370.5C382.21 374.24 382.87 372.45 384.1 375.7C385.27 378.79 384.53 379.09 387.93 380.5C387.26 380.77 385.8 380.69 385.41 381.5C385.3 381.73 387.24 382.79 387.43 383.06C387.89 383.69 387.69 384.76 388.17 385.3C389.17 386.44 391.51 387.58 392.88 388.5C392.08 389.01 391.16 389.75 390.3 390.12C389.92 390.28 388.67 389.83 388.5 390.41C388.44 390.61 389.73 391.38 389.84 391.67C390.29 392.79 389.85 394.1 390.32 395.25C390.6 395.94 391.43 396.04 391.7 396.74C392.25 398.16 391.85 399.86 392.22 401.34C392.93 404.14 395 403.35 395.71 404.7C395.94 405.16 395.24 407.9 395.17 408.5C397.41 408.83 399.64 409.17 401.88 409.5C400.22 409.8 396.15 409.53 397.17 412.3C397.46 413.09 398.69 412.86 398.94 413.54C399.58 415.29 397.27 413.34 399.5 416.07C400.36 414.88 401.21 413.69 402.07 412.5C402.99 413.75 402.65 416.57 401.93 418.5C400.69 418.17 399.45 417.83 398.22 417.5C399.5 420.9 401.79 420.95 404.88 422.5C403.02 424.9 401.65 425.28 403.22 428.5C404.98 428.33 405.7 427.24 407.5 426.07C409.21 428.38 407.36 430.24 405.93 432.5C406.7 433.49 407.35 435.48 408.17 436.3C409.97 438.12 414.7 438.59 411.5 441.93C409.44 439.77 410.76 439 407.5 437.93C407.46 441.26 409.41 441.37 409.56 442.54C409.6 442.83 408.62 444.77 408.5 445.21C408.91 445.3 411.12 445.18 411.28 445.29C412.94 446.46 410.58 448.09 411.21 449.33C411.9 450.69 411.47 448.97 412.5 450.07C414.55 447.87 413.17 448.35 413.5 445.07C415.86 447.72 415.24 450.87 415.93 454.5C414.93 454.17 413.93 453.83 412.93 453.5C413.41 457.02 414.18 459.04 417.5 460.07C417.29 460.25 415.38 461.24 415.21 461.67C415.06 462.06 418.1 466.52 418.7 466.83C420.12 467.55 421.49 467.12 422.5 467.93C419.09 469.05 416.74 469.15 420.5 473.12C421.83 471.79 423.17 470.46 424.5 469.12C425 474.7 424 472.52 420.93 475.5C423.72 477.57 424.6 474.86 426.88 478.5C425.04 479.95 424.09 478.87 421.93 478.5C423.25 484.39 425 480.27 421.5 484.83C423.29 484.39 425.09 483.94 426.88 483.5C424.91 489.22 427.57 487.26 431.5 489.07C429.5 489.02 427.5 488.98 425.5 488.93C425.5 489.49 426.32 493.72 426.67 493.85C427.26 494.06 429.24 493.52 429.93 493.5C429.8 495.34 428.2 498.31 428.21 498.33C428.33 499.1 429.71 499.55 429.98 500.54C430.69 503.06 430.03 505.52 431.49 508C432.48 509.68 434.29 510.61 434.76 512.7C435.1 514.2 435.96 518.88 437.53 519.64C437.83 519.79 440.92 519.29 441.5 519.3C441.94 521.84 441.79 523.04 443.93 524.5C442.58 524.88 440.63 525.08 440.14 526.67C439.48 528.77 444.51 538.46 444.83 541.97C412.2 577.81 379.58 613.66 346.95 649.5C351.32 650.1 356.03 647.32 360.22 645.71C367.43 642.93 374.61 640.04 381.87 637.43C403.04 629.84 424.1 621.66 445.05 613.5C454.52 609.81 465.2 604.41 475 602.16C475.98 604.31 474.95 603.02 473.71 604.22C472.94 604.97 473.04 605.95 472.31 606.67C471.72 607.25 470.71 606.76 470.19 607.7C469.76 608.46 470.17 609.69 470.17 610.5C471.88 612.4 471.3 610.46 473.93 612.5C473.43 617.01 472.56 612.13 472.5 616.07C474.88 617.01 474.91 616.07 476.5 614.07C479.8 617.7 477.07 619.31 474.88 622.5C474.97 623.39 474.75 624.46 475.17 625.3C475.53 626.03 476.35 626.1 476.92 626.58C477.94 627.46 478.61 629.2 479.7 629.83C482.2 631.29 484.25 630.37 484.5 634.88C484.17 634.87 483.83 634.89 483.5 634.89C483.16 634.9 482.81 634.91 482.47 634.89C479.76 634.71 482.33 634.01 481.79 632.67C481.34 631.52 481.25 632.78 480.5 631.93C479.68 632.37 478.33 632.38 478.17 633.64C478.02 634.83 479.14 634.95 479.74 635.72C482.05 638.72 482.06 640.65 485.88 637.5C486.49 639.83 487.09 642.17 487.7 644.5C486.09 644.83 484.49 645.17 482.88 645.5C485.57 649.59 485.98 647.57 489.88 649.5C491.3 652.66 489.55 656.17 493.88 657.5C493.27 658.78 493.43 661.27 492.73 662.26C491.96 663.36 490.67 662.52 489.7 663.13C489.41 663.31 489.72 663.87 489.5 664.12C490.52 664.58 493.08 664.91 493.63 665.77C494.05 666.44 491.76 668.07 491.5 670.07C492.71 670.05 494.15 670.29 495.3 669.83C495.65 669.69 496.2 668.44 496.49 668.48C496.83 668.53 496.88 669.45 496.93 669.5C495.61 670.5 494.28 671.5 492.96 672.5C495.24 674.66 494.77 673.31 497.88 672.5C498.77 675.7 495.13 672.91 496.21 675.33C496.72 676.49 498.34 675.76 499.2 676.27C500.68 677.15 500.23 679.17 501.09 680.32C501.42 680.75 502.11 680.75 502.5 681.12C501.51 682.3 501.56 684.08 500.73 685.25C499.95 686.34 498.63 686.26 497.5 687.93C498.18 688.7 499 688.9 499.73 689.74C502.2 692.55 498.51 692.24 504.88 693.5C499.31 695.41 502.57 696.43 503.5 701.07C504.79 699.74 505.09 699.24 505.5 697.12C506.75 703.44 508.56 699.26 504.79 704.5C505.49 706.17 506.18 707.83 506.88 709.5C509.29 709.57 510.04 708.9 511.5 711.07C510.31 711.88 509.12 712.69 507.93 713.5C512 718.32 509.16 714.8 509.5 720.07C510.57 719.72 510.91 720.1 511.83 719.3C512.23 718.96 511.86 717.62 512.5 717.46C512.67 717.42 513.52 718.73 513.66 718.86C517.37 722.21 513.82 722.62 514.5 727.07C516.26 727.42 518.02 727.76 519.78 728.11C516.32 731.48 510.45 733.38 506.01 735.55C496.2 740.35 486.52 745.41 476.71 750.22C445.09 765.72 413.56 781.59 382.24 797.69C309.79 834.96 236.57 870.65 163.9 907.46C140.88 919.11 117.93 930.94 94.73 942.23C85.76 946.6 71.65 955.73 62.5 957.68C57.55 955.43 58.1 950.38 57.98 945.5C57.73 935.88 58.22 926.16 57.63 916.55C55.93 888.92 56.81 861.18 55.68 833.5C55.04 817.86 54.29 802.18 54.3 786.5C54.32 770.14 52.96 753.86 52.96 737.5C52.96 730.84 51.68 723.39 53.45 716.9C56.22 706.81 67.07 696.27 73.41 687.9C87.76 668.95 102.44 650.23 116.93 631.39C167.49 565.65 217.82 499.72 268.69 434.23C289.83 407 310.74 379.58 331.75 352.27C338.42 343.6 344.95 334.81 351.76 326.27C354.65 322.65 357.28 317.79 360.93 315.09Z" fill="#ff215f" fill-rule="evenodd" stroke="#ff215f" stroke-width="0.25" stroke-linejoin="round"/>
<path d="M595.25 254.94C595 255.96 594.75 256.98 594.5 258C597.48 260.98 596.45 263.75 598.18 267.32C598.61 268.21 599.46 268.77 599.81 269.69C600.58 271.68 600.29 274.36 601.22 276.28C601.56 276.99 602.42 277 602.76 277.72C603.13 278.51 602.79 279.49 603.12 280.32C603.73 281.85 604.49 282.83 604.99 284.45C605.56 286.25 605.81 288.27 606.53 289.97C606.8 290.61 607.69 290.88 607.78 291.66C607.91 292.67 607.31 292.72 606.97 293.5C608.93 295.42 610.08 295.97 608.97 298.5C613.29 300.91 610.5 300.76 611.4 303.46C611.62 304.11 612.51 304.06 612.78 304.72C613.25 305.86 612.8 307.15 613.19 308.31C613.44 309.07 614.14 309.37 614.47 310.03C615.26 311.62 615.31 313.79 616.22 315.29C616.61 315.93 617.47 316.04 617.76 316.73C619.24 320.24 615.99 321.29 620.94 321.5C618.56 326.28 620.37 328.43 622.78 332.7C623.93 334.74 623.34 337.3 624.22 339.29C624.93 340.91 627.16 342.52 627.77 344.76C628.18 346.23 627.69 347.85 628.22 349.28C628.46 349.93 629.28 349.92 629.49 350.54C629.68 351.11 628.98 351.65 629.24 352.32C629.52 353.04 630.44 353.02 630.74 353.73C631.22 354.83 630.71 356.12 631.22 357.21C632.44 359.79 633.9 357.67 632 361.5C636.47 363.95 633.1 365.7 635.22 369.29C636.02 370.67 637.36 371.92 637.78 373.66C637.89 374.11 637.22 375.18 637.39 375.45C637.7 375.94 639.45 376.32 640 376.5C639.94 377.36 639.21 379.78 639.39 380.47C639.74 381.78 642.27 383.15 642.79 384.7C643.61 387.13 643.05 391.07 644.39 393.28C646.29 396.45 647.52 390.72 646 398.5C648.91 398.31 647.27 401.16 648.16 403.34C648.5 404.18 648.75 405.56 649.21 406.28C649.62 406.94 650.5 407.02 650.84 407.72C651.49 409.06 650.88 411.29 651.4 412.46C651.63 412.96 652.51 412.99 652.59 413.53C652.73 414.47 651.44 415.78 651 416.5C651.95 416.8 653.06 417.02 653.79 417.7C654.15 418.03 659.15 430.11 659.42 431.01C659.65 431.74 658.87 432.71 659.25 433.32C659.73 434.09 661.16 434.25 661.97 434.5C660.02 438.63 661.97 437.46 662.78 440.66C662.94 441.31 662.23 441.94 662.41 442.47C662.62 443.12 663.52 443.06 663.78 443.73C664.23 444.87 663.73 446.13 664.19 447.28C664.48 448 665.4 448.01 665.66 448.78C665.94 449.65 665.19 451.64 665 452.5C665.21 452.3 665.67 452.49 665.83 452.25C666.01 452 665.99 450.42 666.5 450.45C667.18 450.49 668.19 457.11 668.49 458.01C669.03 459.65 670.31 461.04 670.81 462.69C671.06 463.52 670.83 464.49 671.22 465.28C671.57 465.99 672.43 466.01 672.78 466.72C673.18 467.53 672.87 468.49 673.19 469.32C673.52 470.19 674.59 470.75 674.76 471.66C674.94 472.67 674.11 473.47 674.12 474.5C674.17 477.54 676.34 478.85 678 480.5C677.52 481.19 676.45 481.72 676.53 482.56C676.59 483.17 678.63 483.77 678.96 484.63C679.43 485.81 678.75 487.09 679.22 488.28C680.25 490.89 680.95 488.8 681 493.5C682.85 493.21 683.45 493.33 684.97 494.5C685.46 496.91 683.99 495.14 683.41 496.52C682.34 499.04 687.86 499.23 682.24 502.5C682.63 502.5 685.08 502.1 685.31 502.25C687.39 503.63 685.5 506.51 684.24 507.5C690.21 507.67 686.59 508.4 687.41 511.47C687.55 511.99 688.47 512.25 688.78 512.72C690.48 515.21 691.1 516.53 689.97 519.5C690.92 520.14 694.8 525.43 694.94 526.5C695.06 527.46 694.2 529.51 694 530.5C695.36 530.43 697.36 532.36 697.75 533.69C698.04 534.67 697.04 535.34 697.22 536.34C697.39 537.28 698.48 537.79 698.78 538.7C699.17 539.85 698.73 541.16 699.22 542.28C699.54 543.01 700.47 542.99 700.78 543.72C701.27 544.85 700.72 546.15 701.21 547.29C702.28 549.79 703.35 547.77 702 551.5C705.61 551.29 702.84 554.25 704.22 556.29C704.83 557.2 706.93 557.29 707.94 557.5C707.08 558.07 705.96 558.19 705.95 559.5C705.95 560.87 707.33 560.71 707.78 561.72C709.55 565.66 707.5 568.8 712.94 570.5C709.05 573.23 711.74 573.16 712.73 575.76C712.84 576.05 712.51 578.58 712.6 578.6C713.03 578.65 713.17 578.13 713.5 578.03C713.87 579.62 713.62 581.82 714.22 583.28C714.87 584.88 717.31 586.55 717.6 588.5C717.7 589.17 716.92 589.75 717.06 590.5C717.32 591.83 718.32 591.66 718.78 592.72C719.83 595.15 718.59 595.85 721 597.5C720.3 605.54 722.4 601.54 724.05 606.53C724.32 607.33 723.98 608.44 724.18 609.31C724.44 610.47 725.62 611.47 725.78 612.66C725.87 613.32 725.25 613.93 725.36 614.5C725.54 615.37 726.47 615.86 726.79 616.7C727.11 617.52 726.8 618.49 727.21 619.28C727.98 620.81 730.11 622.12 730.78 623.72C731.26 624.85 730.81 626.15 731.19 627.31C731.47 628.18 732.45 628.61 732.62 629.5C732.79 630.41 731.95 631.27 732.29 632.28C732.55 633.02 733.45 633.03 733.78 633.72C734.17 634.53 733.82 635.49 734.22 636.29C735.61 639.09 736.42 637.68 734.97 641.5C736.63 643.17 738.28 644.83 739.94 646.5C739.78 647.37 739 649.49 739.24 650.31C739.45 651.01 740.45 651.06 740.78 651.72C740.97 652.09 743.75 659.28 743.81 659.69C743.99 660.8 743.31 661.53 743.36 662.5C743.54 665.75 746.58 664.76 745 668.5C746.78 670.28 748.47 671.97 749.03 674.53C749.22 675.42 748.88 676.42 749.23 677.28C750.17 679.57 751.28 678.73 750 681.5C750.76 681.91 751.92 682.25 752.41 683.01C753.02 683.94 753.41 687.98 754.09 689.38C754.49 690.2 755.6 690.77 755.78 691.66C755.96 692.57 755.17 694.56 754.97 695.5C757.52 697.16 756.18 697.75 757.23 700.21C757.54 700.92 758.51 700.89 758.87 701.64C760.14 704.31 759.17 705.64 761.97 707.5C761.97 708.88 761.55 711.08 762.11 712.37C763.49 715.56 765.12 712.96 763 718.5C763.51 718.16 763.9 717.33 764.5 717.45C766.33 717.82 765.21 720.7 765.37 721.5C765.55 722.38 766.48 722.85 766.81 723.69C767.13 724.5 766.83 725.43 767.22 726.22C767.56 726.92 768.46 726.96 768.78 727.7C769.26 728.82 768.73 730.1 769.22 731.22C769.67 732.26 770.91 732.08 770.94 733.5C770.95 734.28 769.65 735.86 769.24 736.5C772.1 737.53 771.98 738.55 772.24 741.5C774.87 741.27 774.96 747.28 774.97 749.5C778.35 749.29 775.46 752.11 779.97 753.5C779.31 755.33 778.56 757.34 779.19 759.31C780.65 763.89 785.67 761.7 782 766.5C783.12 767.55 784.49 768.22 784.61 770.49C784.65 771.18 784.03 771.58 784.21 772.34C784.78 774.68 786.08 773.96 785 776.5C790.32 778.18 788.03 785.44 793 790.5C792.7 795.05 791.79 796.36 796 799.5C795.93 800.39 795.22 802.71 795.4 803.46C795.56 804.1 796.52 804.04 796.75 804.69C797.05 805.53 796.19 806.18 796.62 807C798.32 810.18 800.25 807.5 797.97 813.5C801.64 812.89 800.33 815.68 802.97 817.5C802.67 818.69 802.37 819.89 802.08 821.08C797.42 818.24 793.75 812.54 790.06 808.43C782.17 799.64 774.29 790.84 766.55 781.94C743.01 754.86 718.28 728.84 694.86 701.66C686.22 691.64 677.24 681.93 668.49 672C665.07 668.11 661.29 662.12 655.5 661.91C651.71 661.78 647.81 664.45 644.52 666.09C636.09 670.29 627.74 674.67 619.26 678.77C596.69 689.71 574.47 701.39 551.98 712.52C542.54 717.19 529.49 725.52 519.78 728.11C518.02 727.76 516.26 727.42 514.5 727.07C513.82 722.62 517.37 722.21 513.66 718.86C513.52 718.73 512.67 717.42 512.5 717.46C511.86 717.62 512.23 718.96 511.83 719.3C510.91 720.1 510.57 719.72 509.5 720.07C509.16 714.8 512 718.32 507.93 713.5C509.12 712.69 510.31 711.88 511.5 711.07C510.04 708.9 509.29 709.57 506.88 709.5C506.18 707.83 505.49 706.17 504.79 704.5C508.56 699.26 506.75 703.44 505.5 697.12C505.09 699.24 504.79 699.74 503.5 701.07C502.57 696.43 499.31 695.41 504.88 693.5C498.51 692.24 502.2 692.55 499.73 689.74C499 688.9 498.18 688.7 497.5 687.93C498.63 686.26 499.95 686.34 500.73 685.25C501.56 684.08 501.51 682.3 502.5 681.12C502.11 680.75 501.42 680.75 501.09 680.32C500.23 679.17 500.68 677.15 499.2 676.27C498.34 675.76 496.72 676.49 496.21 675.33C495.13 672.91 498.77 675.7 497.88 672.5C494.77 673.31 495.24 674.66 492.96 672.5C494.28 671.5 495.61 670.5 496.93 669.5C496.88 669.45 496.83 668.53 496.49 668.48C496.2 668.44 495.65 669.69 495.3 669.83C494.15 670.29 492.71 670.05 491.5 670.07C491.76 668.07 494.05 666.44 493.63 665.77C493.08 664.91 490.52 664.58 489.5 664.12C489.72 663.87 489.41 663.31 489.7 663.13C490.67 662.52 491.96 663.36 492.73 662.26C493.43 661.27 493.27 658.78 493.88 657.5C489.55 656.17 491.3 652.66 489.88 649.5C485.98 647.57 485.57 649.59 482.88 645.5C484.49 645.17 486.09 644.83 487.7 644.5C487.09 642.17 486.49 639.83 485.88 637.5C482.06 640.65 482.05 638.72 479.74 635.72C479.14 634.95 478.02 634.83 478.17 633.64C478.33 632.38 479.68 632.37 480.5 631.93C481.25 632.78 481.34 631.52 481.79 632.67C482.33 634.01 479.76 634.71 482.47 634.89C482.81 634.91 483.16 634.9 483.5 634.89C483.83 634.89 484.17 634.87 484.5 634.88C484.25 630.37 482.2 631.29 479.7 629.83C478.61 629.2 477.94 627.46 476.92 626.58C476.35 626.1 475.53 626.03 475.17 625.3C474.75 624.46 474.97 623.39 474.88 622.5C477.07 619.31 479.8 617.7 476.5 614.07C474.91 616.07 474.88 617.01 472.5 616.07C472.56 612.13 473.43 617.01 473.93 612.5C471.3 610.46 471.88 612.4 470.17 610.5C470.17 609.69 469.76 608.46 470.19 607.7C470.71 606.76 471.72 607.25 472.31 606.67C473.04 605.95 472.94 604.97 473.71 604.22C474.95 603.02 475.98 604.31 475 602.16C482.95 597.95 492.2 595.46 500.61 592.23C515.59 586.48 530.6 580.84 545.53 575.01C551.52 572.67 566.73 569.06 569.52 563.5C568.93 558 560.22 550.42 556.38 546.15C543.12 531.4 529.88 516.62 516.75 501.75C512.85 497.33 504.24 484.32 497.78 486.36C493.55 487.7 486.7 497.47 483.44 500.93C474.21 510.7 465.02 520.53 455.94 530.44C452.4 534.3 449.09 538.96 444.83 541.97C444.51 538.46 439.48 528.77 440.14 526.67C440.63 525.08 442.58 524.88 443.93 524.5C441.79 523.04 441.94 521.84 441.5 519.3C440.92 519.29 437.83 519.79 437.53 519.64C435.96 518.88 435.1 514.2 434.76 512.7C434.29 510.61 432.48 509.68 431.49 508C430.03 505.52 430.69 503.06 429.98 500.54C429.71 499.55 428.33 499.1 428.21 498.33C428.2 498.31 429.8 495.34 429.93 493.5C429.24 493.52 427.26 494.06 426.67 493.85C426.32 493.72 425.5 489.49 425.5 488.93C427.5 488.98 429.5 489.02 431.5 489.07C427.57 487.26 424.91 489.22 426.88 483.5C425.09 483.94 423.29 484.39 421.5 484.83C425 480.27 423.25 484.39 421.93 478.5C424.09 478.87 425.04 479.95 426.88 478.5C424.6 474.86 423.72 477.57 420.93 475.5C424 472.52 425 474.7 424.5 469.12C423.17 470.46 421.83 471.79 420.5 473.12C416.74 469.15 419.09 469.05 422.5 467.93C421.49 467.12 420.12 467.55 418.7 466.83C418.1 466.52 415.06 462.06 415.21 461.67C415.38 461.24 417.29 460.25 417.5 460.07C414.18 459.04 413.41 457.02 412.93 453.5C413.93 453.83 414.93 454.17 415.93 454.5C415.24 450.87 415.86 447.72 413.5 445.07C413.17 448.35 414.55 447.87 412.5 450.07C411.47 448.97 411.9 450.69 411.21 449.33C410.58 448.09 412.94 446.46 411.28 445.29C411.12 445.18 408.91 445.3 408.5 445.21C408.62 444.77 409.6 442.83 409.56 442.54C409.41 441.37 407.46 441.26 407.5 437.93C410.76 439 409.44 439.77 411.5 441.93C414.7 438.59 409.97 438.12 408.17 436.3C407.35 435.48 406.7 433.49 405.93 432.5C407.36 430.24 409.21 428.38 407.5 426.07C405.7 427.24 404.98 428.33 403.22 428.5C401.65 425.28 403.02 424.9 404.88 422.5C401.79 420.95 399.5 420.9 398.22 417.5C399.45 417.83 400.69 418.17 401.93 418.5C402.65 416.57 402.99 413.75 402.07 412.5C401.21 413.69 400.36 414.88 399.5 416.07C397.27 413.34 399.58 415.29 398.94 413.54C398.69 412.86 397.46 413.09 397.17 412.3C396.15 409.53 400.22 409.8 401.88 409.5C399.64 409.17 397.41 408.83 395.17 408.5C395.24 407.9 395.94 405.16 395.71 404.7C395 403.35 392.93 404.14 392.22 401.34C391.85 399.86 392.25 398.16 391.7 396.74C391.43 396.04 390.6 395.94 390.32 395.25C389.85 394.1 390.29 392.79 389.84 391.67C389.73 391.38 388.44 390.61 388.5 390.41C388.67 389.83 389.92 390.28 390.3 390.12C391.16 389.75 392.08 389.01 392.88 388.5C391.51 387.58 389.17 386.44 388.17 385.3C387.69 384.76 387.89 383.69 387.43 383.06C387.24 382.79 385.3 381.73 385.41 381.5C385.8 380.69 387.26 380.77 387.93 380.5C384.53 379.09 385.27 378.79 384.1 375.7C382.87 372.45 382.21 374.24 382.93 370.5C381.46 368.43 379.67 366.91 379.14 364.33C378.89 363.15 379.13 361.84 378.74 360.7C378.3 359.39 376.37 358.72 376.17 357.36C376.01 356.23 377.43 354.49 377.93 353.5C377.01 353.62 373.71 355.46 374.3 352.57C374.7 350.63 378.58 350.81 379.5 350.07C375.56 346.98 376.83 346.96 373.93 349.5C374.18 346.11 374.64 345.42 377.93 344.5C376.8 343.4 374.45 342.37 374.1 340.34C373.55 337.13 375.8 336.31 372.5 334.07C370.73 335.82 371.81 336.64 371.5 339.07C368.21 335.79 370.77 334.31 369.69 332.78C368.92 331.68 367.69 332.46 366.7 331.83C366.27 331.55 366.3 330.85 365.93 330.5C366.91 329.62 365.39 329.85 366.51 329.36C367.29 329.01 368.01 330.49 368.7 329.26C369.4 328 367.88 326.89 368.21 325.67C368.4 324.95 369.41 324.99 369.64 324.26C370.04 323.03 369.12 320.73 368.88 319.5C366.82 319.77 366.36 320.84 363.93 320.5C363.31 318.75 363.47 318.41 364.5 317.07C363.31 316.41 362.12 315.75 360.93 315.09C361.64 314.03 362.34 312.98 363.05 311.93C364.33 312.12 365.6 312.31 366.88 312.5C366.25 312.17 365.63 311.83 365 311.5C364.96 310.92 364.93 310.34 364.89 309.75C366.97 305.13 371.27 300.94 374.37 296.86C381.42 287.6 388.65 278.47 395.69 269.21C420.01 237.24 444.82 205.64 469.14 173.67C477.2 163.07 485.38 152.56 493.51 142.01C495.78 139.08 499.15 132.47 503.45 132.5C507.13 132.53 509.34 136.75 511.21 139.3C516.43 146.42 521.58 153.6 526.78 160.73C542.67 182.51 558.65 204.21 574.48 226.04C581.31 235.47 589.66 244.74 595.25 254.94Z" fill="#ff4a3b" fill-rule="evenodd" stroke="#ff4a3b" stroke-width="0.25" stroke-linejoin="round"/>
<path d="M595.25 254.94C600.2 259.93 604 266.6 608.17 272.3C618.05 285.76 627.88 299.26 637.69 312.77C665.33 350.8 692.9 388.88 720.85 426.68C731.77 441.44 742.48 456.38 753.27 471.24C756.36 475.51 762.18 485.74 767.05 487.43C772.21 489.21 777.89 485.08 782.22 482.67C793.43 476.43 805.08 470.89 816.45 464.91C826.31 459.72 836.38 454.91 846.18 449.61C852.2 446.35 858.44 442.42 865.5 442.16C870.21 441.99 875.01 443.75 879.57 444.75C886.94 446.35 894.27 448.13 901.65 449.67C909.04 451.22 916.36 453.05 923.74 454.61C929.52 455.83 935.97 456.99 937.9 463.56C939.48 468.92 939.56 474.97 940.24 480.49C941.15 487.83 942.41 495.14 943.19 502.5C943.77 508.08 945.63 512.86 942.49 518.01C939.11 523.57 929.98 526.07 924.4 528.85C910.6 535.71 896.84 542.62 883.06 549.51C869.92 556.07 856.79 562.65 843.61 569.14C839.2 571.31 832.06 573.27 833.01 579.46C833.55 582.94 839.26 589.04 841.44 592.06C848.13 601.34 854.95 610.52 861.7 619.76C879.71 644.44 897.43 669.33 915.64 693.86C924.39 705.66 934.56 717.79 942.21 730.28C946.16 736.73 945.69 743.27 945.21 750.5C944.53 760.83 943.77 771.17 943.22 781.5C941 823.53 936.91 865.45 934.93 907.5C934.33 920.24 933.46 932.99 932.43 945.7C932 951.03 932.98 957.96 929.96 962.5C925.65 962.57 922.89 957.39 920.11 954.38C912.74 946.42 905.7 938.14 898.44 930.07C876.48 905.67 855.05 880.84 832.95 856.57C825.64 848.53 818.46 840.36 811.29 832.2C808.22 828.71 803.99 825.25 802.08 821.08C802.37 819.89 802.67 818.69 802.97 817.5C800.33 815.68 801.64 812.89 797.97 813.5C800.25 807.5 798.32 810.18 796.62 807C796.19 806.18 797.05 805.53 796.75 804.69C796.52 804.04 795.56 804.1 795.4 803.46C795.22 802.71 795.93 800.39 796 799.5C791.79 796.36 792.7 795.05 793 790.5C788.03 785.44 790.32 778.18 785 776.5C786.08 773.96 784.78 774.68 784.21 772.34C784.03 771.58 784.65 771.18 784.61 770.49C784.49 768.22 783.12 767.55 782 766.5C785.67 761.7 780.65 763.89 779.19 759.31C778.56 757.34 779.31 755.33 779.97 753.5C775.46 752.11 778.35 749.29 774.97 749.5C774.96 747.28 774.87 741.27 772.24 741.5C771.98 738.55 772.1 737.53 769.24 736.5C769.65 735.86 770.95 734.28 770.94 733.5C770.91 732.08 769.67 732.26 769.22 731.22C768.73 730.1 769.26 728.82 768.78 727.7C768.46 726.96 767.56 726.92 767.22 726.22C766.83 725.43 767.13 724.5 766.81 723.69C766.48 722.85 765.55 722.38 765.37 721.5C765.21 720.7 766.33 717.82 764.5 717.45C763.9 717.33 763.51 718.16 763 718.5C765.12 712.96 763.49 715.56 762.11 712.37C761.55 711.08 761.97 708.88 761.97 707.5C759.17 705.64 760.14 704.31 758.87 701.64C758.51 700.89 757.54 700.92 757.23 700.21C756.18 697.75 757.52 697.16 754.97 695.5C755.17 694.56 755.96 692.57 755.78 691.66C755.6 690.77 754.49 690.2 754.09 689.38C753.41 687.98 753.02 683.94 752.41 683.01C751.92 682.25 750.76 681.91 750 681.5C751.28 678.73 750.17 679.57 749.23 677.28C748.88 676.42 749.22 675.42 749.03 674.53C748.47 671.97 746.78 670.28 745 668.5C746.58 664.76 743.54 665.75 743.36 662.5C743.31 661.53 743.99 660.8 743.81 659.69C743.75 659.28 740.97 652.09 740.78 651.72C740.45 651.06 739.45 651.01 739.24 650.31C739 649.49 739.78 647.37 739.94 646.5C738.28 644.83 736.63 643.17 734.97 641.5C736.42 637.68 735.61 639.09 734.22 636.29C733.82 635.49 734.17 634.53 733.78 633.72C733.45 633.03 732.55 633.02 732.29 632.28C731.95 631.27 732.79 630.41 732.62 629.5C732.45 628.61 731.47 628.18 731.19 627.31C730.81 626.15 731.26 624.85 730.78 623.72C730.11 622.12 727.98 620.81 727.21 619.28C726.8 618.49 727.11 617.52 726.79 616.7C726.47 615.86 725.54 615.37 725.36 614.5C725.25 613.93 725.87 613.32 725.78 612.66C725.62 611.47 724.44 610.47 724.18 609.31C723.98 608.44 724.32 607.33 724.05 606.53C722.4 601.54 720.3 605.54 721 597.5C718.59 595.85 719.83 595.15 718.78 592.72C718.32 591.66 717.32 591.83 717.06 590.5C716.92 589.75 717.7 589.17 717.6 588.5C717.31 586.55 714.87 584.88 714.22 583.28C713.62 581.82 713.87 579.62 713.5 578.03C713.17 578.13 713.03 578.65 712.6 578.6C712.51 578.58 712.84 576.05 712.73 575.76C711.74 573.16 709.05 573.23 712.94 570.5C707.5 568.8 709.55 565.66 707.78 561.72C707.33 560.71 705.95 560.87 705.95 559.5C705.96 558.19 707.08 558.07 707.94 557.5C706.93 557.29 704.83 557.2 704.22 556.29C702.84 554.25 705.61 551.29 702 551.5C703.35 547.77 702.28 549.79 701.21 547.29C700.72 546.15 701.27 544.85 700.78 543.72C700.47 542.99 699.54 543.01 699.22 542.28C698.73 541.16 699.17 539.85 698.78 538.7C698.48 537.79 697.39 537.28 697.22 536.34C697.04 535.34 698.04 534.67 697.75 533.69C697.36 532.36 695.36 530.43 694 530.5C694.2 529.51 695.06 527.46 694.94 526.5C694.8 525.43 690.92 520.14 689.97 519.5C691.1 516.53 690.48 515.21 688.78 512.72C688.47 512.25 687.55 511.99 687.41 511.47C686.59 508.4 690.21 507.67 684.24 507.5C685.5 506.51 687.39 503.63 685.31 502.25C685.08 502.1 682.63 502.5 682.24 502.5C687.86 499.23 682.34 499.04 683.41 496.52C683.99 495.14 685.46 496.91 684.97 494.5C683.45 493.33 682.85 493.21 681 493.5C680.95 488.8 680.25 490.89 679.22 488.28C678.75 487.09 679.43 485.81 678.96 484.63C678.63 483.77 676.59 483.17 676.53 482.56C676.45 481.72 677.52 481.19 678 480.5C676.34 478.85 674.17 477.54 674.12 474.5C674.11 473.47 674.94 472.67 674.76 471.66C674.59 470.75 673.52 470.19 673.19 469.32C672.87 468.49 673.18 467.53 672.78 466.72C672.43 466.01 671.57 465.99 671.22 465.28C670.83 464.49 671.06 463.52 670.81 462.69C670.31 461.04 669.03 459.65 668.49 458.01C668.19 457.11 667.18 450.49 666.5 450.45C665.99 450.42 666.01 452 665.83 452.25C665.67 452.49 665.21 452.3 665 452.5C665.19 451.64 665.94 449.65 665.66 448.78C665.4 448.01 664.48 448 664.19 447.28C663.73 446.13 664.23 444.87 663.78 443.73C663.52 443.06 662.62 443.12 662.41 442.47C662.23 441.94 662.94 441.31 662.78 440.66C661.97 437.46 660.02 438.63 661.97 434.5C661.16 434.25 659.73 434.09 659.25 433.32C658.87 432.71 659.65 431.74 659.42 431.01C659.15 430.11 654.15 418.03 653.79 417.7C653.06 417.02 651.95 416.8 651 416.5C651.44 415.78 652.73 414.47 652.59 413.53C652.51 412.99 651.63 412.96 651.4 412.46C650.88 411.29 651.49 409.06 650.84 407.72C650.5 407.02 649.62 406.94 649.21 406.28C648.75 405.56 648.5 404.18 648.16 403.34C647.27 401.16 648.91 398.31 646 398.5C647.52 390.72 646.29 396.45 644.39 393.28C643.05 391.07 643.61 387.13 642.79 384.7C642.27 383.15 639.74 381.78 639.39 380.47C639.21 379.78 639.94 377.36 640 376.5C639.45 376.32 637.7 375.94 637.39 375.45C637.22 375.18 637.89 374.11 637.78 373.66C637.36 371.92 636.02 370.67 635.22 369.29C633.1 365.7 636.47 363.95 632 361.5C633.9 357.67 632.44 359.79 631.22 357.21C630.71 356.12 631.22 354.83 630.74 353.73C630.44 353.02 629.52 353.04 629.24 352.32C628.98 351.65 629.68 351.11 629.49 350.54C629.28 349.92 628.46 349.93 628.22 349.28C627.69 347.85 628.18 346.23 627.77 344.76C627.16 342.52 624.93 340.91 624.22 339.29C623.34 337.3 623.93 334.74 622.78 332.7C620.37 328.43 618.56 326.28 620.94 321.5C615.99 321.29 619.24 320.24 617.76 316.73C617.47 316.04 616.61 315.93 616.22 315.29C615.31 313.79 615.26 311.62 614.47 310.03C614.14 309.37 613.44 309.07 613.19 308.31C612.8 307.15 613.25 305.86 612.78 304.72C612.51 304.06 611.62 304.11 611.4 303.46C610.5 300.76 613.29 300.91 608.97 298.5C610.08 295.97 608.93 295.42 606.97 293.5C607.31 292.72 607.91 292.67 607.78 291.66C607.69 290.88 606.8 290.61 606.53 289.97C605.81 288.27 605.56 286.25 604.99 284.45C604.49 282.83 603.73 281.85 603.12 280.32C602.79 279.49 603.13 278.51 602.76 277.72C602.42 277 601.56 276.99 601.22 276.28C600.29 274.36 600.58 271.68 599.81 269.69C599.46 268.77 598.61 268.21 598.18 267.32C596.45 263.75 597.48 260.98 594.5 258C594.75 256.98 595 255.96 595.25 254.94ZM870.92 359.97C870.1 360.48 869.28 360.99 868.46 361.5C868.27 375.8 868.62 390.17 868.74 404.57C868.79 411.77 867.14 419.39 869.26 426.1C864.83 425.31 860.62 423.67 856.33 422.3C846.16 419.06 835.95 415.92 825.77 412.67C820.76 411.06 813.68 410.53 811.1 405.5C812.77 399.61 819.82 394.86 824.13 390.62C830.5 384.34 837.09 378.23 843.61 372.11C851.71 364.5 858.53 356.11 870.92 359.97Z" fill="#ff5b2b" fill-rule="evenodd" stroke="#ff5b2b" stroke-width="0.25" stroke-linejoin="round"/>
<path d="M951.93 369.89C959.77 369.69 967.91 371.64 975.71 372.58C988.91 374.16 1002.1 375.79 1015.3 377.43C1021.75 378.23 1034.18 377.57 1038.39 383.13C1042.29 388.27 1040.38 398.41 1040.38 404.5C1040.38 421.48 1041.2 438.49 1041.21 455.5C1041.23 483.28 1042.82 510.71 1042.81 538.5C1042.81 546.17 1042.97 553.83 1042.97 561.5C1042.97 564.79 1043.57 568.76 1042.31 571.86C1039.84 577.9 1034.16 581 1029.1 584.59C1021.3 590.12 1013.56 595.75 1005.7 601.19C999.58 605.42 988.28 615.56 981.5 616.78C977.29 614.51 977.42 609.93 976.72 605.51C975.24 596.21 974.15 586.86 972.73 577.54C967.96 546.29 963.76 514.95 958.61 483.75C956.86 473.11 958.15 459 949 451.72C951.78 447.02 949.69 432.08 949.38 426.34C949.18 422.56 949.6 417.31 949.95 413.47C950.55 406.87 949.57 399.99 949.49 393.5C949.47 392.1 950.49 390.66 950.56 389.3C950.83 384.08 947.67 373.49 951.93 369.89Z" fill="#b7eb00" fill-rule="evenodd" stroke="#b7eb00" stroke-width="0.25" stroke-linejoin="round"/>
<path d="M870.92 359.97C897.92 363.28 924.93 366.59 951.93 369.89C947.67 373.49 950.83 384.08 950.56 389.3C950.49 390.66 949.47 392.1 949.49 393.5C949.57 399.99 950.55 406.87 949.95 413.47C949.6 417.31 949.18 422.56 949.38 426.34C949.69 432.08 951.78 447.02 949 451.72C922.42 443.18 895.84 434.64 869.26 426.1C867.14 419.39 868.79 411.77 868.74 404.57C868.62 390.17 868.27 375.8 868.46 361.5C869.28 360.99 870.1 360.48 870.92 359.97Z" fill="#eaac02" fill-rule="evenodd" stroke="#eaac02" stroke-width="0.25" stroke-linejoin="round"/>
</svg>